
<svg xmlns="http://www.w3.org/2000/svg" version="1.1" viewBox="0 0 647 660">
<g stroke-width="2.00" fill="none" stroke-linecap="butt">
<path stroke="#040405" vector-effect="non-scaling-stroke" d="
  M 14.71 243.00
  Q 15.73 242.59 15.87 241.33
  A 0.36 0.34 13.6 0 1 16.34 241.06
  C 17.23 241.37 18.90 235.77 19.43 234.86
  C 20.97 232.23 21.68 230.36 22.82 227.98
  A 1.24 1.02 0.3 0 1 23.52 227.41
  C 28.39 225.84 21.73 218.50 30.46 216.64
  Q 31.40 216.44 31.92 217.28
  Q 32.13 217.62 32.31 217.26
  Q 32.80 216.31 33.79 216.75"
/>
<path stroke="#787a7b" vector-effect="non-scaling-stroke" d="
  M 33.79 216.75
  C 25.11 236.83 16.30 259.56 15.96 281.65
  C 15.82 290.40 20.04 294.02 28.57 294.41
  C 37.62 294.83 48.09 293.93 56.22 293.97
  Q 134.36 294.30 212.50 294.24
  C 232.54 294.22 251.66 299.34 257.14 321.32
  C 262.07 341.08 254.93 361.50 234.56 368.28
  C 222.15 372.41 208.69 372.67 195.75 373.45
  C 185.36 374.07 177.13 368.52 175.79 357.93
  Q 173.80 342.15 173.89 325.25
  Q 173.93 318.92 172.78 316.42
  C 169.81 309.99 158.01 308.87 153.60 313.93
  Q 152.06 315.71 151.60 319.51
  C 149.44 337.65 142.90 379.06 155.31 387.95
  Q 159.51 390.96 166.96 391.98
  Q 195.42 395.89 223.87 392.68
  C 247.05 390.07 266.93 381.34 276.53 358.54
  Q 282.73 343.81 281.87 326.92
  C 280.08 291.62 251.62 272.90 218.49 272.51
  Q 158.34 271.82 111.25 272.00
  C 92.81 272.07 70.85 272.81 55.24 272.46
  C 41.61 272.15 42.18 262.14 45.12 251.99
  Q 58.26 206.62 86.47 167.46
  C 87.90 165.48 89.59 164.85 90.88 163.23
  C 144.28 95.90 221.93 52.88 308.75 52.48
  C 332.60 52.37 356.39 54.42 379.49 59.54
  C 444.33 73.91 499.15 111.44 539.23 164.03
  Q 539.91 164.92 541.00 165.18
  A 1.46 1.05 -4.8 0 1 541.80 165.66
  Q 597.72 240.64 595.77 334.74
  C 595.63 341.46 593.79 351.68 601.76 354.04
  C 609.63 356.37 620.46 354.25 620.20 343.99
  Q 619.73 325.30 617.08 299.19
  C 612.21 251.25 595.90 206.06 569.31 165.84
  Q 569.05 165.44 568.60 165.21
  Q 567.33 164.55 567.08 164.19
  C 502.67 69.78 390.68 15.35 276.10 33.14
  C 222.57 41.45 170.76 61.54 127.50 94.46"
/>
<path stroke="#040405" vector-effect="non-scaling-stroke" d="
  M 127.50 94.46
  L 122.72 94.94
  A 0.55 0.50 -7.5 0 1 122.13 94.53
  C 121.41 90.14 124.29 90.15 126.18 87.92
  Q 127.39 86.47 128.48 84.93
  Q 128.66 84.67 129.25 84.37
  L 132.35 82.78
  A 1.26 0.74 -39.5 0 1 133.21 82.64
  C 138.65 84.42 138.86 78.30 141.13 75.41
  Q 141.25 75.26 141.67 75.02
  Q 142.05 74.80 141.50 74.46"
/>
<path stroke="#757778" vector-effect="non-scaling-stroke" d="
  M 33.79 216.75
  Q 45.12 190.45 60.38 166.20
  C 61.23 164.85 62.49 164.92 63.45 163.46
  Q 89.75 123.65 127.50 94.46"
/>
<path stroke="#787a7b" vector-effect="non-scaling-stroke" d="
  M 385.39 357.30
  Q 385.10 357.86 384.80 357.30
  Q 365.19 320.69 346.15 284.38
  Q 342.01 276.50 339.28 274.43
  C 334.68 270.94 325.20 270.70 321.08 276.08
  Q 317.97 280.14 316.39 286.22
  Q 311.12 306.43 306.36 326.77
  C 305.93 328.63 305.01 330.57 304.53 332.56
  Q 298.54 357.31 292.35 382.03
  C 288.81 396.19 312.78 397.99 316.83 385.69
  C 320.84 373.51 322.77 360.87 325.25 348.31
  C 327.49 336.96 330.31 328.80 335.53 319.41
  Q 335.91 318.71 336.29 319.41
  Q 349.79 344.18 362.95 369.31
  C 368.15 379.24 370.31 393.45 384.89 393.62
  C 399.48 393.79 400.87 380.44 406.13 370.52
  C 411.71 360.01 417.43 349.60 422.66 338.91
  Q 428.03 327.95 437.93 320.51
  A 0.37 0.36 66.2 0 1 438.51 320.74
  Q 439.80 327.70 441.76 334.50
  C 444.56 344.17 444.17 358.74 449.24 370.64
  C 457.05 388.94 473.38 395.21 492.50 394.49
  Q 532.71 392.96 540.75 393.45
  C 554.78 394.31 568.24 395.66 582.31 393.84
  Q 589.89 392.87 587.69 401.47
  C 576.48 445.25 555.99 484.46 526.27 518.49
  C 458.92 595.59 358.98 629.03 258.25 607.98
  Q 158.23 587.07 95.62 508.19
  C 89.78 500.82 83.64 493.41 78.69 485.84
  C 46.62 436.81 31.88 382.31 33.87 323.75
  C 34.49 305.42 11.44 306.99 11.11 321.69
  C 9.82 379.57 22.80 436.21 52.22 486.20
  C 57.82 495.73 65.99 507.01 72.16 515.07
  C 121.11 579.06 189.59 623.92 270.33 634.21
  C 332.60 642.15 403.52 629.16 460.00 600.24
  C 507.28 576.02 545.53 539.04 573.54 493.52
  C 592.52 462.68 608.20 425.11 615.19 388.66
  C 617.38 377.21 610.07 373.52 600.14 372.62
  C 569.44 369.83 539.59 373.89 510.94 373.90
  C 487.78 373.90 469.27 366.46 464.39 341.32
  C 460.60 321.78 458.80 301.81 452.17 283.07
  C 448.62 273.03 437.84 266.96 429.06 275.90
  C 426.14 278.87 424.73 282.29 422.83 285.91
  Q 403.93 321.75 385.39 357.30"
/>
<path stroke="#828383" vector-effect="non-scaling-stroke" d="
  M 137.56 445.41
  L 139.58 448.24
  A 1.29 0.22 56.9 0 0 140.22 448.93
  C 141.29 449.40 141.00 448.45 140.72 447.98
  Q 138.17 443.64 135.71 439.26
  Q 134.27 436.69 132.83 439.30
  L 128.01 448.10
  A 0.62 0.35 -65.2 0 0 128.08 448.89
  Q 128.81 449.05 130.61 445.88
  A 1.42 1.17 10.8 0 1 131.73 445.27
  L 136.69 445.11
  A 1.13 0.64 -10.3 0 1 137.56 445.41"
/>
<path stroke="#828383" vector-effect="non-scaling-stroke" d="
  M 156.91 444.76
  Q 157.67 446.41 157.54 448.23
  A 0.77 0.57 -78.5 0 0 157.87 448.94
  Q 158.11 449.05 158.35 449.02
  A 0.84 0.58 -88.1 0 0 158.87 448.32
  Q 159.20 445.84 157.59 444.13
  A 0.80 0.65 39.1 0 1 157.42 443.31
  Q 157.71 442.75 158.29 442.41
  A 1.32 0.81 -17.3 0 0 158.89 441.73
  C 160.05 437.18 151.12 437.80 148.86 438.10
  A 0.61 0.60 87.2 0 0 148.34 438.68
  C 148.29 439.74 147.58 449.79 149.16 448.83
  A 1.03 0.67 81.1 0 0 149.51 448.04
  L 149.58 444.62
  A 0.56 0.55 -88.4 0 1 150.14 444.08
  L 156.18 444.23
  A 0.93 0.80 76.5 0 1 156.91 444.76"
/>
<path stroke="#828383" vector-effect="non-scaling-stroke" d="
  M 178.60 448.79
  A 0.30 0.27 32.5 0 1 178.48 448.35
  C 186.23 438.87 172.66 434.59 166.76 441.23
  Q 164.98 443.23 166.78 445.72
  C 170.47 450.80 173.07 447.86 177.40 449.36
  C 177.84 449.52 181.24 451.09 181.53 450.78
  A 0.52 0.43 32.3 0 0 181.29 450.05
  L 178.60 448.79"
/>
<path stroke="#828383" vector-effect="non-scaling-stroke" d="
  M 190.67 447.80
  Q 194.63 450.27 198.94 448.40
  Q 201.19 447.42 201.21 445.05
  L 201.25 438.98
  A 1.14 0.70 -79.3 0 0 200.93 438.15
  Q 200.69 437.99 200.43 438.04
  A 0.75 0.51 88.2 0 0 199.99 438.73
  L 199.78 445.74
  A 1.42 1.35 -23.6 0 1 199.41 446.62
  Q 197.07 449.12 192.98 447.86
  Q 190.53 447.10 190.52 444.53
  L 190.48 438.82
  A 0.84 0.65 -83.5 0 0 190.03 438.08
  Q 189.76 437.98 189.50 438.05
  A 0.78 0.63 83.0 0 0 189.03 438.80
  L 189.24 445.57
  A 3.07 2.45 18.7 0 0 190.67 447.80"
/>
<path stroke="#828383" vector-effect="non-scaling-stroke" d="
  M 211.4815 438.6189
  A 0.60 0.60 0.0 0 0 210.8804 438.0200
  L 210.8404 438.0200
  A 0.60 0.60 0.0 0 0 210.2415 438.6211
  L 210.2585 448.4011
  A 0.60 0.60 0.0 0 0 210.8596 449.0000
  L 210.8996 449.0000
  A 0.60 0.60 0.0 0 0 211.4985 448.3989
  L 211.4815 438.6189"
/>
<path stroke="#828383" vector-effect="non-scaling-stroke" d="
  M 223.20 439.06
  A 0.57 0.55 90.0 0 1 223.74 439.62
  L 223.77 448.46
  A 0.60 0.51 -89.0 0 0 224.26 449.06
  C 225.45 449.12 224.98 441.99 225.07 439.65
  A 0.59 0.57 88.4 0 1 225.58 439.09
  C 226.30 439.01 230.28 439.28 230.13 438.48
  A 0.69 0.55 -3.9 0 0 229.47 438.02
  C 228.40 438.01 217.72 437.60 218.02 438.59
  A 0.90 0.50 -2.6 0 0 218.81 438.98
  L 223.20 439.06"
/>
<path stroke="#828383" vector-effect="non-scaling-stroke" d="
  M 239.05 439.24
  C 239.50 439.18 247.51 439.11 247.21 438.46
  A 0.89 0.73 -10.1 0 0 246.44 438.03
  L 237.87 438.10
  A 0.53 0.53 -0.1 0 0 237.34 438.63
  L 237.29 448.45
  A 0.52 0.52 90.0 0 0 237.81 448.97
  L 246.95 448.96
  Q 247.69 448.96 247.37 448.47
  C 247.15 448.13 241.36 448.28 239.22 448.08
  A 0.73 0.70 -3.9 0 1 238.59 447.55
  Q 238.18 445.92 238.63 444.28
  A 0.71 0.69 5.6 0 1 239.27 443.77
  C 239.46 443.76 248.66 443.59 246.02 442.77
  C 244.60 442.34 240.89 442.77 239.15 442.67
  A 0.62 0.54 0.7 0 1 238.57 442.15
  L 238.51 439.81
  A 0.63 0.54 -5.6 0 1 239.05 439.24"
/>
<path stroke="#828383" vector-effect="non-scaling-stroke" d="
  M 256.39 439.67
  C 249.35 445.34 260.25 452.64 266.88 447.07
  C 267.14 446.85 267.53 446.08 267.03 446.00
  A 1.18 0.56 -52.0 0 0 266.19 446.42
  C 262.82 449.77 255.44 448.65 255.71 443.03
  Q 255.83 440.61 258.03 439.59
  Q 262.60 437.49 266.26 440.69
  A 1.03 0.54 50.1 0 0 266.99 440.99
  Q 267.33 440.93 267.30 440.53
  A 1.19 0.82 21.3 0 0 266.78 439.76
  Q 261.06 435.91 256.39 439.67"
/>
<path stroke="#828383" vector-effect="non-scaling-stroke" d="
  M 273.01 438.26
  C 272.48 439.13 277.69 439.18 278.16 439.25
  A 0.61 0.57 4.7 0 1 278.68 439.82
  L 278.73 448.28
  A 0.93 0.69 -81.5 0 0 279.14 449.05
  C 280.49 449.68 280.04 440.58 280.08 439.65
  A 0.59 0.58 88.3 0 1 280.60 439.09
  Q 282.51 438.92 284.42 439.00
  C 285.30 439.03 285.97 438.04 284.60 438.03
  Q 279.10 437.98 273.59 438.00
  A 0.74 0.51 10.4 0 0 273.01 438.26"
/>
<path stroke="#828383" vector-effect="non-scaling-stroke" d="
  M 294.67 447.80
  Q 299.02 450.54 303.57 448.04
  Q 305.17 447.17 305.21 445.34
  C 305.23 444.76 305.81 437.49 304.41 438.00
  A 0.86 0.59 85.0 0 0 303.99 438.74
  L 303.78 445.74
  A 1.42 1.35 -23.6 0 1 303.41 446.62
  Q 301.07 449.12 296.97 447.86
  Q 294.53 447.10 294.52 444.53
  L 294.48 438.82
  A 0.84 0.65 -83.5 0 0 294.03 438.08
  Q 293.76 437.98 293.50 438.05
  A 0.78 0.63 83.0 0 0 293.03 438.80
  L 293.24 445.56
  A 3.10 2.47 18.9 0 0 294.67 447.80"
/>
<path stroke="#828383" vector-effect="non-scaling-stroke" d="
  M 321.91 444.76
  Q 322.67 446.41 322.54 448.23
  A 0.79 0.55 -78.5 0 0 322.85 448.94
  Q 323.09 449.07 323.32 449.02
  A 0.90 0.59 -88.0 0 0 323.83 448.29
  Q 324.19 445.86 322.64 444.08
  A 0.84 0.66 40.3 0 1 322.47 443.24
  Q 322.74 442.73 323.29 442.41
  A 1.31 0.80 -18.0 0 0 323.89 441.71
  C 324.90 437.17 316.18 437.79 313.86 438.10
  A 0.61 0.60 87.2 0 0 313.34 438.68
  C 313.29 439.74 312.58 449.79 314.16 448.83
  A 1.03 0.67 81.1 0 0 314.51 448.04
  L 314.58 444.62
  A 0.56 0.55 -88.4 0 1 315.14 444.08
  L 321.18 444.23
  A 0.93 0.80 76.5 0 1 321.91 444.76"
/>
<path stroke="#828383" vector-effect="non-scaling-stroke" d="
  M 341.39 445.31
  Q 342.82 446.52 343.58 448.24
  A 1.42 0.92 80.3 0 0 344.22 448.93
  C 346.24 449.77 340.06 439.86 339.72 439.26
  Q 338.26 436.69 336.83 439.31
  L 332.01 448.09
  A 0.93 0.62 -54.1 0 0 331.98 448.98
  C 332.71 449.88 334.50 446.09 334.77 445.66
  A 0.99 0.80 11.2 0 1 335.53 445.26
  L 340.50 445.07
  A 1.44 0.85 -15.5 0 1 341.39 445.31"
/>
<path stroke="#828383" vector-effect="non-scaling-stroke" d="
  M 366.15 443.40
  Q 363.96 441.19 362.02 438.79
  C 361.15 437.73 359.62 437.83 360.97 439.31
  Q 363.18 441.73 365.38 444.18
  A 1.41 1.38 -66.5 0 1 365.72 445.07
  L 365.77 448.19
  A 0.96 0.70 -82.4 0 0 366.19 448.97
  C 367.66 449.63 367.27 445.74 367.30 445.07
  A 1.38 1.33 -23.4 0 1 367.66 444.21
  L 372.65 438.81
  A 0.72 0.55 -44.1 0 0 372.77 437.99
  C 372.33 437.42 367.50 442.77 366.86 443.40
  A 0.51 0.50 -44.6 0 1 366.15 443.40"
/>
<path stroke="#828383" vector-effect="non-scaling-stroke" d="
  M 393.06 439.24
  C 393.57 439.17 401.48 439.12 401.21 438.46
  A 0.88 0.69 -8.6 0 0 400.44 438.02
  L 391.79 438.03
  A 0.52 0.52 -0.6 0 0 391.28 438.55
  L 391.28 448.46
  A 0.51 0.51 0.0 0 0 391.79 448.97
  L 401.14 448.98
  A 0.40 0.31 2.3 0 0 401.53 448.70
  C 401.61 448.07 394.28 448.09 393.27 448.03
  A 0.66 0.51 1.3 0 1 392.64 447.52
  L 392.56 444.39
  A 0.67 0.54 -4.5 0 1 393.16 443.83
  Q 396.27 443.50 399.39 443.75
  C 401.01 443.88 401.25 442.65 399.63 442.71
  Q 396.41 442.85 393.15 442.67
  A 0.62 0.54 0.7 0 1 392.57 442.15
  L 392.51 439.81
  A 0.63 0.54 -5.6 0 1 393.06 439.24"
/>
<path stroke="#828383" vector-effect="non-scaling-stroke" d="
  M 417.89 445.51
  C 419.13 449.07 412.24 448.26 410.75 447.65
  A 1.61 0.79 71.7 0 1 410.10 446.99
  Q 409.66 446.24 408.74 446.10
  A 0.34 0.33 84.2 0 0 408.38 446.55
  C 410.46 452.40 423.97 447.50 418.19 444.05
  C 416.73 443.18 410.54 442.76 410.27 440.53
  A 0.83 0.77 -20.4 0 1 410.66 439.76
  Q 414.69 437.30 418.05 440.69
  Q 418.48 441.13 418.76 440.91
  A 0.72 0.52 55.6 0 0 418.78 440.07
  C 414.77 433.85 403.48 441.67 411.50 443.06
  Q 414.47 443.58 417.23 444.85
  A 1.31 0.98 8.0 0 1 417.89 445.51"
/>
<path stroke="#828383" vector-effect="non-scaling-stroke" d="
  M 429.06 444.33
  Q 434.55 444.51 435.99 443.79
  C 439.11 442.23 438.47 439.32 435.42 438.47
  Q 431.72 437.45 427.72 438.18
  A 0.63 0.60 85.5 0 0 427.23 438.78
  L 427.15 447.92
  A 1.36 0.64 -81.2 0 0 427.42 448.84
  Q 427.76 449.17 428.17 448.88
  A 1.19 0.71 80.7 0 0 428.51 448.02
  L 428.53 444.82
  A 0.51 0.50 1.7 0 1 429.06 444.33"
/>
<path stroke="#828383" vector-effect="non-scaling-stroke" d="
  M 452.77 445.69
  L 454.53 448.26
  A 1.53 0.45 61.6 0 0 455.20 448.93
  C 456.28 449.38 456.02 448.49 455.73 447.99
  Q 453.11 443.48 450.53 438.95
  Q 449.27 436.74 448.04 438.98
  L 443.03 448.12
  A 1.10 0.71 -52.4 0 0 442.95 449.04
  C 443.52 450.06 445.54 446.03 445.76 445.70
  A 0.95 0.91 -73.0 0 1 446.54 445.26
  L 451.93 445.29
  A 1.11 0.89 -13.1 0 1 452.77 445.69"
/>
<path stroke="#828383" vector-effect="non-scaling-stroke" d="
  M 463.13 446.00
  C 465.85 450.15 471.65 450.11 475.10 446.89
  Q 475.70 446.32 475.21 446.09
  A 0.88 0.63 -50.4 0 0 474.37 446.31
  Q 470.86 449.60 466.71 447.81
  C 458.96 444.47 467.20 434.60 474.11 440.58
  Q 474.94 441.30 475.16 440.70
  A 0.82 0.64 32.3 0 0 474.86 439.88
  C 469.87 435.88 458.79 439.35 463.13 446.00"
/>
<path stroke="#828383" vector-effect="non-scaling-stroke" d="
  M 484.5261 438.5634
  A 0.45 0.45 0.0 0 0 484.0784 438.1111
  L 483.6984 438.1091
  A 0.45 0.45 0.0 0 0 483.2461 438.5567
  L 483.1939 448.5166
  A 0.45 0.45 0.0 0 0 483.6416 448.9689
  L 484.0216 448.9709
  A 0.45 0.45 0.0 0 0 484.4739 448.5233
  L 484.5261 438.5634"
/>
<path stroke="#828383" vector-effect="non-scaling-stroke" d="
  M 506.9799 443.5015
  A 7.35 5.69 -0.3 0 0 499.6002 437.8501
  A 7.35 5.69 -0.3 0 0 492.2801 443.5785
  A 7.35 5.69 -0.3 0 0 499.6598 449.2299
  A 7.35 5.69 -0.3 0 0 506.9799 443.5015"
/>
<path stroke="#828383" vector-effect="non-scaling-stroke" d="
  M 132.18 444.31
  L 136.03 444.51
  Q 137.53 444.59 136.76 443.24
  L 134.70 439.63
  Q 134.42 439.14 134.16 439.59
  L 131.82 443.73
  A 0.41 0.39 15.1 0 0 132.18 444.31"
/>
<path stroke="#7f8080" vector-effect="non-scaling-stroke" d="
  M 157.3670 440.4092
  A 1.42 1.42 0.0 0 0 155.9396 438.9966
  L 150.8197 439.0234
  A 1.42 1.42 0.0 0 0 149.4071 440.4508
  L 149.4130 441.5708
  A 1.42 1.42 0.0 0 0 150.8404 442.9834
  L 155.9603 442.9566
  A 1.42 1.42 0.0 0 0 157.3729 441.5292
  L 157.3670 440.4092"
/>
<path stroke="#7f8080" vector-effect="non-scaling-stroke" d="
  M 179.6593 443.6344
  A 6.01 4.80 0.9 0 0 173.7254 438.7406
  A 6.01 4.80 0.9 0 0 167.6407 443.4456
  A 6.01 4.80 0.9 0 0 173.5746 448.3394
  A 6.01 4.80 0.9 0 0 179.6593 443.6344"
/>
<path stroke="#7f8080" vector-effect="non-scaling-stroke" d="
  M 321.45 442.55
  C 326.14 438.76 316.85 438.85 315.03 439.17
  A 0.63 0.58 -5.7 0 0 314.50 439.76
  L 314.58 442.38
  A 0.56 0.56 88.4 0 0 315.15 442.92
  L 320.55 442.90
  A 1.58 1.22 -58.9 0 0 321.45 442.55"
/>
<path stroke="#7f8080" vector-effect="non-scaling-stroke" d="
  M 338.07 439.62
  L 335.96 443.83
  A 0.40 0.39 -77.5 0 0 336.32 444.40
  L 340.36 444.37
  A 0.40 0.40 -12.9 0 0 340.72 443.80
  L 338.75 439.62
  Q 338.42 438.93 338.07 439.62"
/>
<path stroke="#7f8080" vector-effect="non-scaling-stroke" d="
  M 436.25 442.32
  C 438.45 438.37 431.25 438.83 429.19 439.11
  A 0.73 0.73 2.3 0 0 428.58 439.67
  Q 428.21 441.28 428.71 442.89
  A 0.79 0.77 -5.1 0 0 429.37 443.43
  Q 432.52 443.85 435.51 442.90
  A 1.37 1.21 3.5 0 0 436.25 442.32"
/>
<path stroke="#7f8080" vector-effect="non-scaling-stroke" d="
  M 448.45 440.49
  Q 444.08 445.95 451.26 444.31
  A 0.47 0.40 -18.3 0 0 451.62 443.72
  L 449.58 439.57
  A 0.32 0.30 -37.9 0 0 449.07 439.52
  C 448.80 439.82 448.61 440.28 448.45 440.49"
/>
<path stroke="#828383" vector-effect="non-scaling-stroke" d="
  M 505.6096 443.6229
  A 5.97 4.79 0.7 0 0 499.6985 438.7604
  A 5.97 4.79 0.7 0 0 493.6704 443.4771
  A 5.97 4.79 0.7 0 0 499.5815 448.3396
  A 5.97 4.79 0.7 0 0 505.6096 443.6229"
/>
</g>
<path fill="#070708" d="
  M 14.71 243.00
  Q 15.73 242.59 15.87 241.33
  A 0.36 0.34 13.6 0 1 16.34 241.06
  C 17.23 241.37 18.90 235.77 19.43 234.86
  C 20.97 232.23 21.68 230.36 22.82 227.98
  A 1.24 1.02 0.3 0 1 23.52 227.41
  C 28.39 225.84 21.73 218.50 30.46 216.64
  Q 31.40 216.44 31.92 217.28
  Q 32.13 217.62 32.31 217.26
  Q 32.80 216.31 33.79 216.75
  C 25.11 236.83 16.30 259.56 15.96 281.65
  C 15.82 290.40 20.04 294.02 28.57 294.41
  C 37.62 294.83 48.09 293.93 56.22 293.97
  Q 134.36 294.30 212.50 294.24
  C 232.54 294.22 251.66 299.34 257.14 321.32
  C 262.07 341.08 254.93 361.50 234.56 368.28
  C 222.15 372.41 208.69 372.67 195.75 373.45
  C 185.36 374.07 177.13 368.52 175.79 357.93
  Q 173.80 342.15 173.89 325.25
  Q 173.93 318.92 172.78 316.42
  C 169.81 309.99 158.01 308.87 153.60 313.93
  Q 152.06 315.71 151.60 319.51
  C 149.44 337.65 142.90 379.06 155.31 387.95
  Q 159.51 390.96 166.96 391.98
  Q 195.42 395.89 223.87 392.68
  C 247.05 390.07 266.93 381.34 276.53 358.54
  Q 282.73 343.81 281.87 326.92
  C 280.08 291.62 251.62 272.90 218.49 272.51
  Q 158.34 271.82 111.25 272.00
  C 92.81 272.07 70.85 272.81 55.24 272.46
  C 41.61 272.15 42.18 262.14 45.12 251.99
  Q 58.26 206.62 86.47 167.46
  C 87.90 165.48 89.59 164.85 90.88 163.23
  C 144.28 95.90 221.93 52.88 308.75 52.48
  C 332.60 52.37 356.39 54.42 379.49 59.54
  C 444.33 73.91 499.15 111.44 539.23 164.03
  Q 539.91 164.92 541.00 165.18
  A 1.46 1.05 -4.8 0 1 541.80 165.66
  Q 597.72 240.64 595.77 334.74
  C 595.63 341.46 593.79 351.68 601.76 354.04
  C 609.63 356.37 620.46 354.25 620.20 343.99
  Q 619.73 325.30 617.08 299.19
  C 612.21 251.25 595.90 206.06 569.31 165.84
  Q 569.05 165.44 568.60 165.21
  Q 567.33 164.55 567.08 164.19
  C 502.67 69.78 390.68 15.35 276.10 33.14
  C 222.57 41.45 170.76 61.54 127.50 94.46
  L 122.72 94.94
  A 0.55 0.50 -7.5 0 1 122.13 94.53
  C 121.41 90.14 124.29 90.15 126.18 87.92
  Q 127.39 86.47 128.48 84.93
  Q 128.66 84.67 129.25 84.37
  L 132.35 82.78
  A 1.26 0.74 -39.5 0 1 133.21 82.64
  C 138.65 84.42 138.86 78.30 141.13 75.41
  Q 141.25 75.26 141.67 75.02
  Q 142.05 74.80 141.50 74.46
  C 288.25 -23.07 483.36 18.94 579.68 164.36
  A 1.72 1.40 78.9 0 0 580.43 164.98
  L 580.90 165.17
  A 1.66 1.52 -3.8 0 1 581.65 165.77
  C 645.47 265.70 647.20 395.88 583.73 496.23
  C 483.30 655.00 270.17 694.27 120.97 577.58
  C 19.66 498.35 -22.93 364.68 14.71 243.00
  Z
  M 385.39 357.30
  Q 385.10 357.86 384.80 357.30
  Q 365.19 320.69 346.15 284.38
  Q 342.01 276.50 339.28 274.43
  C 334.68 270.94 325.20 270.70 321.08 276.08
  Q 317.97 280.14 316.39 286.22
  Q 311.12 306.43 306.36 326.77
  C 305.93 328.63 305.01 330.57 304.53 332.56
  Q 298.54 357.31 292.35 382.03
  C 288.81 396.19 312.78 397.99 316.83 385.69
  C 320.84 373.51 322.77 360.87 325.25 348.31
  C 327.49 336.96 330.31 328.80 335.53 319.41
  Q 335.91 318.71 336.29 319.41
  Q 349.79 344.18 362.95 369.31
  C 368.15 379.24 370.31 393.45 384.89 393.62
  C 399.48 393.79 400.87 380.44 406.13 370.52
  C 411.71 360.01 417.43 349.60 422.66 338.91
  Q 428.03 327.95 437.93 320.51
  A 0.37 0.36 66.2 0 1 438.51 320.74
  Q 439.80 327.70 441.76 334.50
  C 444.56 344.17 444.17 358.74 449.24 370.64
  C 457.05 388.94 473.38 395.21 492.50 394.49
  Q 532.71 392.96 540.75 393.45
  C 554.78 394.31 568.24 395.66 582.31 393.84
  Q 589.89 392.87 587.69 401.47
  C 576.48 445.25 555.99 484.46 526.27 518.49
  C 458.92 595.59 358.98 629.03 258.25 607.98
  Q 158.23 587.07 95.62 508.19
  C 89.78 500.82 83.64 493.41 78.69 485.84
  C 46.62 436.81 31.88 382.31 33.87 323.75
  C 34.49 305.42 11.44 306.99 11.11 321.69
  C 9.82 379.57 22.80 436.21 52.22 486.20
  C 57.82 495.73 65.99 507.01 72.16 515.07
  C 121.11 579.06 189.59 623.92 270.33 634.21
  C 332.60 642.15 403.52 629.16 460.00 600.24
  C 507.28 576.02 545.53 539.04 573.54 493.52
  C 592.52 462.68 608.20 425.11 615.19 388.66
  C 617.38 377.21 610.07 373.52 600.14 372.62
  C 569.44 369.83 539.59 373.89 510.94 373.90
  C 487.78 373.90 469.27 366.46 464.39 341.32
  C 460.60 321.78 458.80 301.81 452.17 283.07
  C 448.62 273.03 437.84 266.96 429.06 275.90
  C 426.14 278.87 424.73 282.29 422.83 285.91
  Q 403.93 321.75 385.39 357.30
  Z
  M 137.56 445.41
  L 139.58 448.24
  A 1.29 0.22 56.9 0 0 140.22 448.93
  C 141.29 449.40 141.00 448.45 140.72 447.98
  Q 138.17 443.64 135.71 439.26
  Q 134.27 436.69 132.83 439.30
  L 128.01 448.10
  A 0.62 0.35 -65.2 0 0 128.08 448.89
  Q 128.81 449.05 130.61 445.88
  A 1.42 1.17 10.8 0 1 131.73 445.27
  L 136.69 445.11
  A 1.13 0.64 -10.3 0 1 137.56 445.41
  Z
  M 156.91 444.76
  Q 157.67 446.41 157.54 448.23
  A 0.77 0.57 -78.5 0 0 157.87 448.94
  Q 158.11 449.05 158.35 449.02
  A 0.84 0.58 -88.1 0 0 158.87 448.32
  Q 159.20 445.84 157.59 444.13
  A 0.80 0.65 39.1 0 1 157.42 443.31
  Q 157.71 442.75 158.29 442.41
  A 1.32 0.81 -17.3 0 0 158.89 441.73
  C 160.05 437.18 151.12 437.80 148.86 438.10
  A 0.61 0.60 87.2 0 0 148.34 438.68
  C 148.29 439.74 147.58 449.79 149.16 448.83
  A 1.03 0.67 81.1 0 0 149.51 448.04
  L 149.58 444.62
  A 0.56 0.55 -88.4 0 1 150.14 444.08
  L 156.18 444.23
  A 0.93 0.80 76.5 0 1 156.91 444.76
  Z
  M 178.60 448.79
  A 0.30 0.27 32.5 0 1 178.48 448.35
  C 186.23 438.87 172.66 434.59 166.76 441.23
  Q 164.98 443.23 166.78 445.72
  C 170.47 450.80 173.07 447.86 177.40 449.36
  C 177.84 449.52 181.24 451.09 181.53 450.78
  A 0.52 0.43 32.3 0 0 181.29 450.05
  L 178.60 448.79
  Z
  M 190.67 447.80
  Q 194.63 450.27 198.94 448.40
  Q 201.19 447.42 201.21 445.05
  L 201.25 438.98
  A 1.14 0.70 -79.3 0 0 200.93 438.15
  Q 200.69 437.99 200.43 438.04
  A 0.75 0.51 88.2 0 0 199.99 438.73
  L 199.78 445.74
  A 1.42 1.35 -23.6 0 1 199.41 446.62
  Q 197.07 449.12 192.98 447.86
  Q 190.53 447.10 190.52 444.53
  L 190.48 438.82
  A 0.84 0.65 -83.5 0 0 190.03 438.08
  Q 189.76 437.98 189.50 438.05
  A 0.78 0.63 83.0 0 0 189.03 438.80
  L 189.24 445.57
  A 3.07 2.45 18.7 0 0 190.67 447.80
  Z
  M 211.4815 438.6189
  A 0.60 0.60 0.0 0 0 210.8804 438.0200
  L 210.8404 438.0200
  A 0.60 0.60 0.0 0 0 210.2415 438.6211
  L 210.2585 448.4011
  A 0.60 0.60 0.0 0 0 210.8596 449.0000
  L 210.8996 449.0000
  A 0.60 0.60 0.0 0 0 211.4985 448.3989
  L 211.4815 438.6189
  Z
  M 223.20 439.06
  A 0.57 0.55 90.0 0 1 223.74 439.62
  L 223.77 448.46
  A 0.60 0.51 -89.0 0 0 224.26 449.06
  C 225.45 449.12 224.98 441.99 225.07 439.65
  A 0.59 0.57 88.4 0 1 225.58 439.09
  C 226.30 439.01 230.28 439.28 230.13 438.48
  A 0.69 0.55 -3.9 0 0 229.47 438.02
  C 228.40 438.01 217.72 437.60 218.02 438.59
  A 0.90 0.50 -2.6 0 0 218.81 438.98
  L 223.20 439.06
  Z
  M 239.05 439.24
  C 239.50 439.18 247.51 439.11 247.21 438.46
  A 0.89 0.73 -10.1 0 0 246.44 438.03
  L 237.87 438.10
  A 0.53 0.53 -0.1 0 0 237.34 438.63
  L 237.29 448.45
  A 0.52 0.52 90.0 0 0 237.81 448.97
  L 246.95 448.96
  Q 247.69 448.96 247.37 448.47
  C 247.15 448.13 241.36 448.28 239.22 448.08
  A 0.73 0.70 -3.9 0 1 238.59 447.55
  Q 238.18 445.92 238.63 444.28
  A 0.71 0.69 5.6 0 1 239.27 443.77
  C 239.46 443.76 248.66 443.59 246.02 442.77
  C 244.60 442.34 240.89 442.77 239.15 442.67
  A 0.62 0.54 0.7 0 1 238.57 442.15
  L 238.51 439.81
  A 0.63 0.54 -5.6 0 1 239.05 439.24
  Z
  M 256.39 439.67
  C 249.35 445.34 260.25 452.64 266.88 447.07
  C 267.14 446.85 267.53 446.08 267.03 446.00
  A 1.18 0.56 -52.0 0 0 266.19 446.42
  C 262.82 449.77 255.44 448.65 255.71 443.03
  Q 255.83 440.61 258.03 439.59
  Q 262.60 437.49 266.26 440.69
  A 1.03 0.54 50.1 0 0 266.99 440.99
  Q 267.33 440.93 267.30 440.53
  A 1.19 0.82 21.3 0 0 266.78 439.76
  Q 261.06 435.91 256.39 439.67
  Z
  M 273.01 438.26
  C 272.48 439.13 277.69 439.18 278.16 439.25
  A 0.61 0.57 4.7 0 1 278.68 439.82
  L 278.73 448.28
  A 0.93 0.69 -81.5 0 0 279.14 449.05
  C 280.49 449.68 280.04 440.58 280.08 439.65
  A 0.59 0.58 88.3 0 1 280.60 439.09
  Q 282.51 438.92 284.42 439.00
  C 285.30 439.03 285.97 438.04 284.60 438.03
  Q 279.10 437.98 273.59 438.00
  A 0.74 0.51 10.4 0 0 273.01 438.26
  Z
  M 294.67 447.80
  Q 299.02 450.54 303.57 448.04
  Q 305.17 447.17 305.21 445.34
  C 305.23 444.76 305.81 437.49 304.41 438.00
  A 0.86 0.59 85.0 0 0 303.99 438.74
  L 303.78 445.74
  A 1.42 1.35 -23.6 0 1 303.41 446.62
  Q 301.07 449.12 296.97 447.86
  Q 294.53 447.10 294.52 444.53
  L 294.48 438.82
  A 0.84 0.65 -83.5 0 0 294.03 438.08
  Q 293.76 437.98 293.50 438.05
  A 0.78 0.63 83.0 0 0 293.03 438.80
  L 293.24 445.56
  A 3.10 2.47 18.9 0 0 294.67 447.80
  Z
  M 321.91 444.76
  Q 322.67 446.41 322.54 448.23
  A 0.79 0.55 -78.5 0 0 322.85 448.94
  Q 323.09 449.07 323.32 449.02
  A 0.90 0.59 -88.0 0 0 323.83 448.29
  Q 324.19 445.86 322.64 444.08
  A 0.84 0.66 40.3 0 1 322.47 443.24
  Q 322.74 442.73 323.29 442.41
  A 1.31 0.80 -18.0 0 0 323.89 441.71
  C 324.90 437.17 316.18 437.79 313.86 438.10
  A 0.61 0.60 87.2 0 0 313.34 438.68
  C 313.29 439.74 312.58 449.79 314.16 448.83
  A 1.03 0.67 81.1 0 0 314.51 448.04
  L 314.58 444.62
  A 0.56 0.55 -88.4 0 1 315.14 444.08
  L 321.18 444.23
  A 0.93 0.80 76.5 0 1 321.91 444.76
  Z
  M 341.39 445.31
  Q 342.82 446.52 343.58 448.24
  A 1.42 0.92 80.3 0 0 344.22 448.93
  C 346.24 449.77 340.06 439.86 339.72 439.26
  Q 338.26 436.69 336.83 439.31
  L 332.01 448.09
  A 0.93 0.62 -54.1 0 0 331.98 448.98
  C 332.71 449.88 334.50 446.09 334.77 445.66
  A 0.99 0.80 11.2 0 1 335.53 445.26
  L 340.50 445.07
  A 1.44 0.85 -15.5 0 1 341.39 445.31
  Z
  M 366.15 443.40
  Q 363.96 441.19 362.02 438.79
  C 361.15 437.73 359.62 437.83 360.97 439.31
  Q 363.18 441.73 365.38 444.18
  A 1.41 1.38 -66.5 0 1 365.72 445.07
  L 365.77 448.19
  A 0.96 0.70 -82.4 0 0 366.19 448.97
  C 367.66 449.63 367.27 445.74 367.30 445.07
  A 1.38 1.33 -23.4 0 1 367.66 444.21
  L 372.65 438.81
  A 0.72 0.55 -44.1 0 0 372.77 437.99
  C 372.33 437.42 367.50 442.77 366.86 443.40
  A 0.51 0.50 -44.6 0 1 366.15 443.40
  Z
  M 393.06 439.24
  C 393.57 439.17 401.48 439.12 401.21 438.46
  A 0.88 0.69 -8.6 0 0 400.44 438.02
  L 391.79 438.03
  A 0.52 0.52 -0.6 0 0 391.28 438.55
  L 391.28 448.46
  A 0.51 0.51 0.0 0 0 391.79 448.97
  L 401.14 448.98
  A 0.40 0.31 2.3 0 0 401.53 448.70
  C 401.61 448.07 394.28 448.09 393.27 448.03
  A 0.66 0.51 1.3 0 1 392.64 447.52
  L 392.56 444.39
  A 0.67 0.54 -4.5 0 1 393.16 443.83
  Q 396.27 443.50 399.39 443.75
  C 401.01 443.88 401.25 442.65 399.63 442.71
  Q 396.41 442.85 393.15 442.67
  A 0.62 0.54 0.7 0 1 392.57 442.15
  L 392.51 439.81
  A 0.63 0.54 -5.6 0 1 393.06 439.24
  Z
  M 417.89 445.51
  C 419.13 449.07 412.24 448.26 410.75 447.65
  A 1.61 0.79 71.7 0 1 410.10 446.99
  Q 409.66 446.24 408.74 446.10
  A 0.34 0.33 84.2 0 0 408.38 446.55
  C 410.46 452.40 423.97 447.50 418.19 444.05
  C 416.73 443.18 410.54 442.76 410.27 440.53
  A 0.83 0.77 -20.4 0 1 410.66 439.76
  Q 414.69 437.30 418.05 440.69
  Q 418.48 441.13 418.76 440.91
  A 0.72 0.52 55.6 0 0 418.78 440.07
  C 414.77 433.85 403.48 441.67 411.50 443.06
  Q 414.47 443.58 417.23 444.85
  A 1.31 0.98 8.0 0 1 417.89 445.51
  Z
  M 429.06 444.33
  Q 434.55 444.51 435.99 443.79
  C 439.11 442.23 438.47 439.32 435.42 438.47
  Q 431.72 437.45 427.72 438.18
  A 0.63 0.60 85.5 0 0 427.23 438.78
  L 427.15 447.92
  A 1.36 0.64 -81.2 0 0 427.42 448.84
  Q 427.76 449.17 428.17 448.88
  A 1.19 0.71 80.7 0 0 428.51 448.02
  L 428.53 444.82
  A 0.51 0.50 1.7 0 1 429.06 444.33
  Z
  M 452.77 445.69
  L 454.53 448.26
  A 1.53 0.45 61.6 0 0 455.20 448.93
  C 456.28 449.38 456.02 448.49 455.73 447.99
  Q 453.11 443.48 450.53 438.95
  Q 449.27 436.74 448.04 438.98
  L 443.03 448.12
  A 1.10 0.71 -52.4 0 0 442.95 449.04
  C 443.52 450.06 445.54 446.03 445.76 445.70
  A 0.95 0.91 -73.0 0 1 446.54 445.26
  L 451.93 445.29
  A 1.11 0.89 -13.1 0 1 452.77 445.69
  Z
  M 463.13 446.00
  C 465.85 450.15 471.65 450.11 475.10 446.89
  Q 475.70 446.32 475.21 446.09
  A 0.88 0.63 -50.4 0 0 474.37 446.31
  Q 470.86 449.60 466.71 447.81
  C 458.96 444.47 467.20 434.60 474.11 440.58
  Q 474.94 441.30 475.16 440.70
  A 0.82 0.64 32.3 0 0 474.86 439.88
  C 469.87 435.88 458.79 439.35 463.13 446.00
  Z
  M 484.5261 438.5634
  A 0.45 0.45 0.0 0 0 484.0784 438.1111
  L 483.6984 438.1091
  A 0.45 0.45 0.0 0 0 483.2461 438.5567
  L 483.1939 448.5166
  A 0.45 0.45 0.0 0 0 483.6416 448.9689
  L 484.0216 448.9709
  A 0.45 0.45 0.0 0 0 484.4739 448.5233
  L 484.5261 438.5634
  Z
  M 506.9799 443.5015
  A 7.35 5.69 -0.3 0 0 499.6002 437.8501
  A 7.35 5.69 -0.3 0 0 492.2801 443.5785
  A 7.35 5.69 -0.3 0 0 499.6598 449.2299
  A 7.35 5.69 -0.3 0 0 506.9799 443.5015
  Z"
/>
<path fill="#e8ecee" d="
  M 33.79 216.75
  Q 45.12 190.45 60.38 166.20
  C 61.23 164.85 62.49 164.92 63.45 163.46
  Q 89.75 123.65 127.50 94.46
  C 170.76 61.54 222.57 41.45 276.10 33.14
  C 390.68 15.35 502.67 69.78 567.08 164.19
  Q 567.33 164.55 568.60 165.21
  Q 569.05 165.44 569.31 165.84
  C 595.90 206.06 612.21 251.25 617.08 299.19
  Q 619.73 325.30 620.20 343.99
  C 620.46 354.25 609.63 356.37 601.76 354.04
  C 593.79 351.68 595.63 341.46 595.77 334.74
  Q 597.72 240.64 541.80 165.66
  A 1.46 1.05 -4.8 0 0 541.00 165.18
  Q 539.91 164.92 539.23 164.03
  C 499.15 111.44 444.33 73.91 379.49 59.54
  C 356.39 54.42 332.60 52.37 308.75 52.48
  C 221.93 52.88 144.28 95.90 90.88 163.23
  C 89.59 164.85 87.90 165.48 86.47 167.46
  Q 58.26 206.62 45.12 251.99
  C 42.18 262.14 41.61 272.15 55.24 272.46
  C 70.85 272.81 92.81 272.07 111.25 272.00
  Q 158.34 271.82 218.49 272.51
  C 251.62 272.90 280.08 291.62 281.87 326.92
  Q 282.73 343.81 276.53 358.54
  C 266.93 381.34 247.05 390.07 223.87 392.68
  Q 195.42 395.89 166.96 391.98
  Q 159.51 390.96 155.31 387.95
  C 142.90 379.06 149.44 337.65 151.60 319.51
  Q 152.06 315.71 153.60 313.93
  C 158.01 308.87 169.81 309.99 172.78 316.42
  Q 173.93 318.92 173.89 325.25
  Q 173.80 342.15 175.79 357.93
  C 177.13 368.52 185.36 374.07 195.75 373.45
  C 208.69 372.67 222.15 372.41 234.56 368.28
  C 254.93 361.50 262.07 341.08 257.14 321.32
  C 251.66 299.34 232.54 294.22 212.50 294.24
  Q 134.36 294.30 56.22 293.97
  C 48.09 293.93 37.62 294.83 28.57 294.41
  C 20.04 294.02 15.82 290.40 15.96 281.65
  C 16.30 259.56 25.11 236.83 33.79 216.75
  Z"
/>
<path fill="#010101" d="
  M 141.50 74.46
  Q 142.05 74.80 141.67 75.02
  Q 141.25 75.26 141.13 75.41
  C 138.86 78.30 138.65 84.42 133.21 82.64
  A 1.26 0.74 -39.5 0 0 132.35 82.78
  L 129.25 84.37
  Q 128.66 84.67 128.48 84.93
  Q 127.39 86.47 126.18 87.92
  C 124.29 90.15 121.41 90.14 122.13 94.53
  A 0.55 0.50 -7.5 0 0 122.72 94.94
  L 127.50 94.46
  Q 89.75 123.65 63.45 163.46
  C 62.49 164.92 61.23 164.85 60.38 166.20
  Q 45.12 190.45 33.79 216.75
  Q 32.80 216.31 32.31 217.26
  Q 32.13 217.62 31.92 217.28
  Q 31.40 216.44 30.46 216.64
  C 21.73 218.50 28.39 225.84 23.52 227.41
  A 1.24 1.02 0.3 0 0 22.82 227.98
  C 21.68 230.36 20.97 232.23 19.43 234.86
  C 18.90 235.77 17.23 241.37 16.34 241.06
  A 0.36 0.34 13.6 0 0 15.87 241.33
  Q 15.73 242.59 14.71 243.00
  Q 26.86 202.24 49.73 166.38
  C 50.59 165.03 51.76 164.98 52.55 163.78
  Q 87.89 110.02 141.50 74.46
  Z"
/>
<path fill="#e8ecee" d="
  M 385.39 357.30
  Q 403.93 321.75 422.83 285.91
  C 424.73 282.29 426.14 278.87 429.06 275.90
  C 437.84 266.96 448.62 273.03 452.17 283.07
  C 458.80 301.81 460.60 321.78 464.39 341.32
  C 469.27 366.46 487.78 373.90 510.94 373.90
  C 539.59 373.89 569.44 369.83 600.14 372.62
  C 610.07 373.52 617.38 377.21 615.19 388.66
  C 608.20 425.11 592.52 462.68 573.54 493.52
  C 545.53 539.04 507.28 576.02 460.00 600.24
  C 403.52 629.16 332.60 642.15 270.33 634.21
  C 189.59 623.92 121.11 579.06 72.16 515.07
  C 65.99 507.01 57.82 495.73 52.22 486.20
  C 22.80 436.21 9.82 379.57 11.11 321.69
  C 11.44 306.99 34.49 305.42 33.87 323.75
  C 31.88 382.31 46.62 436.81 78.69 485.84
  C 83.64 493.41 89.78 500.82 95.62 508.19
  Q 158.23 587.07 258.25 607.98
  C 358.98 629.03 458.92 595.59 526.27 518.49
  C 555.99 484.46 576.48 445.25 587.69 401.47
  Q 589.89 392.87 582.31 393.84
  C 568.24 395.66 554.78 394.31 540.75 393.45
  Q 532.71 392.96 492.50 394.49
  C 473.38 395.21 457.05 388.94 449.24 370.64
  C 444.17 358.74 444.56 344.17 441.76 334.50
  Q 439.80 327.70 438.51 320.74
  A 0.37 0.36 66.2 0 0 437.93 320.51
  Q 428.03 327.95 422.66 338.91
  C 417.43 349.60 411.71 360.01 406.13 370.52
  C 400.87 380.44 399.48 393.79 384.89 393.62
  C 370.31 393.45 368.15 379.24 362.95 369.31
  Q 349.79 344.18 336.29 319.41
  Q 335.91 318.71 335.53 319.41
  C 330.31 328.80 327.49 336.96 325.25 348.31
  C 322.77 360.87 320.84 373.51 316.83 385.69
  C 312.78 397.99 288.81 396.19 292.35 382.03
  Q 298.54 357.31 304.53 332.56
  C 305.01 330.57 305.93 328.63 306.36 326.77
  Q 311.12 306.43 316.39 286.22
  Q 317.97 280.14 321.08 276.08
  C 325.20 270.70 334.68 270.94 339.28 274.43
  Q 342.01 276.50 346.15 284.38
  Q 365.19 320.69 384.80 357.30
  Q 385.10 357.86 385.39 357.30
  Z"
/>
<path fill="#fdfefe" d="
  M 136.69 445.11
  L 131.73 445.27
  A 1.42 1.17 10.8 0 0 130.61 445.88
  Q 128.81 449.05 128.08 448.89
  A 0.62 0.35 -65.2 0 1 128.01 448.10
  L 132.83 439.30
  Q 134.27 436.69 135.71 439.26
  Q 138.17 443.64 140.72 447.98
  C 141.00 448.45 141.29 449.40 140.22 448.93
  A 1.29 0.22 56.9 0 1 139.58 448.24
  L 137.56 445.41
  A 1.13 0.64 -10.3 0 0 136.69 445.11
  Z
  M 132.18 444.31
  L 136.03 444.51
  Q 137.53 444.59 136.76 443.24
  L 134.70 439.63
  Q 134.42 439.14 134.16 439.59
  L 131.82 443.73
  A 0.41 0.39 15.1 0 0 132.18 444.31
  Z"
/>
<path fill="#fdfefe" d="
  M 156.18 444.23
  L 150.14 444.08
  A 0.56 0.55 -88.4 0 0 149.58 444.62
  L 149.51 448.04
  A 1.03 0.67 81.1 0 1 149.16 448.83
  C 147.58 449.79 148.29 439.74 148.34 438.68
  A 0.61 0.60 87.2 0 1 148.86 438.10
  C 151.12 437.80 160.05 437.18 158.89 441.73
  A 1.32 0.81 -17.3 0 1 158.29 442.41
  Q 157.71 442.75 157.42 443.31
  A 0.80 0.65 39.1 0 0 157.59 444.13
  Q 159.20 445.84 158.87 448.32
  A 0.84 0.58 -88.1 0 1 158.35 449.02
  Q 158.11 449.05 157.87 448.94
  A 0.77 0.57 -78.5 0 1 157.54 448.23
  Q 157.67 446.41 156.91 444.76
  A 0.93 0.80 76.5 0 0 156.18 444.23
  Z
  M 157.3670 440.4092
  A 1.42 1.42 0.0 0 0 155.9396 438.9966
  L 150.8197 439.0234
  A 1.42 1.42 0.0 0 0 149.4071 440.4508
  L 149.4130 441.5708
  A 1.42 1.42 0.0 0 0 150.8404 442.9834
  L 155.9603 442.9566
  A 1.42 1.42 0.0 0 0 157.3729 441.5292
  L 157.3670 440.4092
  Z"
/>
<path fill="#fdfefe" d="
  M 178.60 448.79
  L 181.29 450.05
  A 0.52 0.43 32.3 0 1 181.53 450.78
  C 181.24 451.09 177.84 449.52 177.40 449.36
  C 173.07 447.86 170.47 450.80 166.78 445.72
  Q 164.98 443.23 166.76 441.23
  C 172.66 434.59 186.23 438.87 178.48 448.35
  A 0.30 0.27 32.5 0 0 178.60 448.79
  Z
  M 179.6593 443.6344
  A 6.01 4.80 0.9 0 0 173.7254 438.7406
  A 6.01 4.80 0.9 0 0 167.6407 443.4456
  A 6.01 4.80 0.9 0 0 173.5746 448.3394
  A 6.01 4.80 0.9 0 0 179.6593 443.6344
  Z"
/>
<path fill="#fdfefe" d="
  M 190.67 447.80
  A 3.07 2.45 18.7 0 1 189.24 445.57
  L 189.03 438.80
  A 0.78 0.63 83.0 0 1 189.50 438.05
  Q 189.76 437.98 190.03 438.08
  A 0.84 0.65 -83.5 0 1 190.48 438.82
  L 190.52 444.53
  Q 190.53 447.10 192.98 447.86
  Q 197.07 449.12 199.41 446.62
  A 1.42 1.35 -23.6 0 0 199.78 445.74
  L 199.99 438.73
  A 0.75 0.51 88.2 0 1 200.43 438.04
  Q 200.69 437.99 200.93 438.15
  A 1.14 0.70 -79.3 0 1 201.25 438.98
  L 201.21 445.05
  Q 201.19 447.42 198.94 448.40
  Q 194.63 450.27 190.67 447.80
  Z"
/>
<rect fill="#fdfefe" x="-0.62" y="-5.49" transform="translate(210.87,443.51) rotate(-0.1)" width="1.24" height="10.98" rx="0.60"/>
<path fill="#fdfefe" d="
  M 223.20 439.06
  L 218.81 438.98
  A 0.90 0.50 -2.6 0 1 218.02 438.59
  C 217.72 437.60 228.40 438.01 229.47 438.02
  A 0.69 0.55 -3.9 0 1 230.13 438.48
  C 230.28 439.28 226.30 439.01 225.58 439.09
  A 0.59 0.57 88.4 0 0 225.07 439.65
  C 224.98 441.99 225.45 449.12 224.26 449.06
  A 0.60 0.51 -89.0 0 1 223.77 448.46
  L 223.74 439.62
  A 0.57 0.55 90.0 0 0 223.20 439.06
  Z"
/>
<path fill="#fdfefe" d="
  M 238.51 439.81
  L 238.57 442.15
  A 0.62 0.54 0.7 0 0 239.15 442.67
  C 240.89 442.77 244.60 442.34 246.02 442.77
  C 248.66 443.59 239.46 443.76 239.27 443.77
  A 0.71 0.69 5.6 0 0 238.63 444.28
  Q 238.18 445.92 238.59 447.55
  A 0.73 0.70 -3.9 0 0 239.22 448.08
  C 241.36 448.28 247.15 448.13 247.37 448.47
  Q 247.69 448.96 246.95 448.96
  L 237.81 448.97
  A 0.52 0.52 -89.7 0 1 237.29 448.45
  L 237.34 438.63
  A 0.53 0.53 -0.2 0 1 237.87 438.10
  L 246.44 438.03
  A 0.89 0.73 -10.1 0 1 247.21 438.46
  C 247.51 439.11 239.50 439.18 239.05 439.24
  A 0.63 0.54 -5.6 0 0 238.51 439.81
  Z"
/>
<path fill="#fdfefe" d="
  M 266.88 447.07
  C 260.25 452.64 249.35 445.34 256.39 439.67
  Q 261.06 435.91 266.78 439.76
  A 1.19 0.82 21.3 0 1 267.30 440.53
  Q 267.33 440.93 266.99 440.99
  A 1.03 0.54 50.1 0 1 266.26 440.69
  Q 262.60 437.49 258.03 439.59
  Q 255.83 440.61 255.71 443.03
  C 255.44 448.65 262.82 449.77 266.19 446.42
  A 1.18 0.56 -52.0 0 1 267.03 446.00
  C 267.53 446.08 267.14 446.85 266.88 447.07
  Z"
/>
<path fill="#fdfefe" d="
  M 278.16 439.25
  C 277.69 439.18 272.48 439.13 273.01 438.26
  A 0.74 0.51 10.4 0 1 273.59 438.00
  Q 279.10 437.98 284.60 438.03
  C 285.97 438.04 285.30 439.03 284.42 439.00
  Q 282.51 438.92 280.60 439.09
  A 0.59 0.58 88.3 0 0 280.08 439.65
  C 280.04 440.58 280.49 449.68 279.14 449.05
  A 0.93 0.69 -81.5 0 1 278.73 448.28
  L 278.68 439.82
  A 0.61 0.57 4.7 0 0 278.16 439.25
  Z"
/>
<path fill="#fdfefe" d="
  M 294.67 447.80
  A 3.10 2.47 18.9 0 1 293.24 445.56
  L 293.03 438.80
  A 0.78 0.63 83.0 0 1 293.50 438.05
  Q 293.76 437.98 294.03 438.08
  A 0.84 0.65 -83.5 0 1 294.48 438.82
  L 294.52 444.53
  Q 294.53 447.10 296.97 447.86
  Q 301.07 449.12 303.41 446.62
  A 1.42 1.35 -23.6 0 0 303.78 445.74
  L 303.99 438.74
  A 0.86 0.59 85.0 0 1 304.41 438.00
  C 305.81 437.49 305.23 444.76 305.21 445.34
  Q 305.17 447.17 303.57 448.04
  Q 299.02 450.54 294.67 447.80
  Z"
/>
<path fill="#fdfefe" d="
  M 321.18 444.23
  L 315.14 444.08
  A 0.56 0.55 -88.4 0 0 314.58 444.62
  L 314.51 448.04
  A 1.03 0.67 81.1 0 1 314.16 448.83
  C 312.58 449.79 313.29 439.74 313.34 438.68
  A 0.61 0.60 87.2 0 1 313.86 438.10
  C 316.18 437.79 324.90 437.17 323.89 441.71
  A 1.31 0.80 -18.0 0 1 323.29 442.41
  Q 322.74 442.73 322.47 443.24
  A 0.84 0.66 40.3 0 0 322.64 444.08
  Q 324.19 445.86 323.83 448.29
  A 0.90 0.59 -88.0 0 1 323.32 449.02
  Q 323.09 449.07 322.85 448.94
  A 0.79 0.55 -78.5 0 1 322.54 448.23
  Q 322.67 446.41 321.91 444.76
  A 0.93 0.80 76.5 0 0 321.18 444.23
  Z
  M 321.45 442.55
  C 326.14 438.76 316.85 438.85 315.03 439.17
  A 0.63 0.58 -5.7 0 0 314.50 439.76
  L 314.58 442.38
  A 0.56 0.56 88.4 0 0 315.15 442.92
  L 320.55 442.90
  A 1.58 1.22 -58.9 0 0 321.45 442.55
  Z"
/>
<path fill="#fdfefe" d="
  M 340.50 445.07
  L 335.53 445.26
  A 0.99 0.80 11.2 0 0 334.77 445.66
  C 334.50 446.09 332.71 449.88 331.98 448.98
  A 0.93 0.62 -54.1 0 1 332.01 448.09
  L 336.83 439.31
  Q 338.26 436.69 339.72 439.26
  C 340.06 439.86 346.24 449.77 344.22 448.93
  A 1.42 0.92 80.3 0 1 343.58 448.24
  Q 342.82 446.52 341.39 445.31
  A 1.44 0.85 -15.5 0 0 340.50 445.07
  Z
  M 338.07 439.62
  L 335.96 443.83
  A 0.40 0.39 -77.5 0 0 336.32 444.40
  L 340.36 444.37
  A 0.40 0.40 -12.9 0 0 340.72 443.80
  L 338.75 439.62
  Q 338.42 438.93 338.07 439.62
  Z"
/>
<path fill="#fdfefe" d="
  M 366.86 443.40
  C 367.50 442.77 372.33 437.42 372.77 437.99
  A 0.72 0.55 -44.1 0 1 372.65 438.81
  L 367.66 444.21
  A 1.38 1.33 -23.4 0 0 367.30 445.07
  C 367.27 445.74 367.66 449.63 366.19 448.97
  A 0.96 0.70 -82.4 0 1 365.77 448.19
  L 365.72 445.07
  A 1.41 1.38 -66.5 0 0 365.38 444.18
  Q 363.18 441.73 360.97 439.31
  C 359.62 437.83 361.15 437.73 362.02 438.79
  Q 363.96 441.19 366.15 443.40
  A 0.51 0.50 -44.6 0 0 366.86 443.40
  Z"
/>
<path fill="#fdfefe" d="
  M 392.51 439.81
  L 392.57 442.15
  A 0.62 0.54 0.7 0 0 393.15 442.67
  Q 396.41 442.85 399.63 442.71
  C 401.25 442.65 401.01 443.88 399.39 443.75
  Q 396.27 443.50 393.16 443.83
  A 0.67 0.54 -4.5 0 0 392.56 444.39
  L 392.64 447.52
  A 0.66 0.51 1.3 0 0 393.27 448.03
  C 394.28 448.09 401.61 448.07 401.53 448.70
  A 0.40 0.31 2.3 0 1 401.14 448.98
  L 391.79 448.97
  A 0.51 0.51 0.0 0 1 391.28 448.46
  L 391.28 438.55
  A 0.52 0.52 -0.6 0 1 391.79 438.03
  L 400.44 438.02
  A 0.88 0.69 -8.6 0 1 401.21 438.46
  C 401.48 439.12 393.57 439.17 393.06 439.24
  A 0.63 0.54 -5.6 0 0 392.51 439.81
  Z"
/>
<path fill="#fdfefe" d="
  M 417.23 444.85
  Q 414.47 443.58 411.50 443.06
  C 403.48 441.67 414.77 433.85 418.78 440.07
  A 0.72 0.52 55.6 0 1 418.76 440.91
  Q 418.48 441.13 418.05 440.69
  Q 414.69 437.30 410.66 439.76
  A 0.83 0.77 -20.4 0 0 410.27 440.53
  C 410.54 442.76 416.73 443.18 418.19 444.05
  C 423.97 447.50 410.46 452.40 408.38 446.55
  A 0.34 0.33 84.2 0 1 408.74 446.10
  Q 409.66 446.24 410.10 446.99
  A 1.61 0.79 71.7 0 0 410.75 447.65
  C 412.24 448.26 419.13 449.07 417.89 445.51
  A 1.31 0.98 8.0 0 0 417.23 444.85
  Z"
/>
<path fill="#fdfefe" d="
  M 428.53 444.82
  L 428.51 448.02
  A 1.19 0.71 80.7 0 1 428.17 448.88
  Q 427.76 449.17 427.42 448.84
  A 1.36 0.64 -81.2 0 1 427.15 447.92
  L 427.23 438.78
  A 0.63 0.60 85.5 0 1 427.72 438.18
  Q 431.72 437.45 435.42 438.47
  C 438.47 439.32 439.11 442.23 435.99 443.79
  Q 434.55 444.51 429.06 444.33
  A 0.51 0.50 1.7 0 0 428.53 444.82
  Z
  M 436.25 442.32
  C 438.45 438.37 431.25 438.83 429.19 439.11
  A 0.73 0.73 2.3 0 0 428.58 439.67
  Q 428.21 441.28 428.71 442.89
  A 0.79 0.77 -5.1 0 0 429.37 443.43
  Q 432.52 443.85 435.51 442.90
  A 1.37 1.21 3.5 0 0 436.25 442.32
  Z"
/>
<path fill="#fdfefe" d="
  M 451.93 445.29
  L 446.54 445.26
  A 0.95 0.91 -73.0 0 0 445.76 445.70
  C 445.54 446.03 443.52 450.06 442.95 449.04
  A 1.10 0.71 -52.4 0 1 443.03 448.12
  L 448.04 438.98
  Q 449.27 436.74 450.53 438.95
  Q 453.11 443.48 455.73 447.99
  C 456.02 448.49 456.28 449.38 455.20 448.93
  A 1.53 0.45 61.6 0 1 454.53 448.26
  L 452.77 445.69
  A 1.11 0.89 -13.1 0 0 451.93 445.29
  Z
  M 448.45 440.49
  Q 444.08 445.95 451.26 444.31
  A 0.47 0.40 -18.3 0 0 451.62 443.72
  L 449.58 439.57
  A 0.32 0.30 -37.9 0 0 449.07 439.52
  C 448.80 439.82 448.61 440.28 448.45 440.49
  Z"
/>
<path fill="#fdfefe" d="
  M 463.13 446.00
  C 458.79 439.35 469.87 435.88 474.86 439.88
  A 0.82 0.64 32.3 0 1 475.16 440.70
  Q 474.94 441.30 474.11 440.58
  C 467.20 434.60 458.96 444.47 466.71 447.81
  Q 470.86 449.60 474.37 446.31
  A 0.88 0.63 -50.4 0 1 475.21 446.09
  Q 475.70 446.32 475.10 446.89
  C 471.65 450.11 465.85 450.15 463.13 446.00
  Z"
/>
<rect fill="#fdfefe" x="-0.64" y="-5.43" transform="translate(483.86,443.54) rotate(0.3)" width="1.28" height="10.86" rx="0.45"/>
<path fill="#fdfefe" d="
  M 506.9799 443.5015
  A 7.35 5.69 -0.3 0 1 499.6598 449.2299
  A 7.35 5.69 -0.3 0 1 492.2801 443.5785
  A 7.35 5.69 -0.3 0 1 499.6002 437.8501
  A 7.35 5.69 -0.3 0 1 506.9799 443.5015
  Z
  M 505.6096 443.6229
  A 5.97 4.79 0.7 0 0 499.6985 438.7604
  A 5.97 4.79 0.7 0 0 493.6704 443.4771
  A 5.97 4.79 0.7 0 0 499.5815 448.3396
  A 5.97 4.79 0.7 0 0 505.6096 443.6229
  Z"
/>
<ellipse fill="#010101" cx="0.00" cy="0.00" transform="translate(173.65,443.54) rotate(0.9)" rx="6.01" ry="4.80"/>
<ellipse fill="#070708" cx="0.00" cy="0.00" transform="translate(499.64,443.55) rotate(0.7)" rx="5.97" ry="4.79"/>
<rect fill="#010101" x="-3.98" y="-1.98" transform="translate(153.39,440.99) rotate(-0.3)" width="7.96" height="3.96" rx="1.42"/>
<path fill="#010101" d="
  M 315.03 439.17
  C 316.85 438.85 326.14 438.76 321.45 442.55
  A 1.58 1.22 -58.9 0 1 320.55 442.90
  L 315.15 442.92
  A 0.56 0.56 88.4 0 1 314.58 442.38
  L 314.50 439.76
  A 0.63 0.58 -5.7 0 1 315.03 439.17
  Z"
/>
<path fill="#010101" d="
  M 429.19 439.11
  C 431.25 438.83 438.45 438.37 436.25 442.32
  A 1.37 1.21 3.5 0 1 435.51 442.90
  Q 432.52 443.85 429.37 443.43
  A 0.79 0.77 -5.1 0 1 428.71 442.89
  Q 428.21 441.28 428.58 439.67
  A 0.73 0.73 2.3 0 1 429.19 439.11
  Z"
/>
<path fill="#070708" d="
  M 132.18 444.31
  A 0.41 0.39 15.1 0 1 131.82 443.73
  L 134.16 439.59
  Q 134.42 439.14 134.70 439.63
  L 136.76 443.24
  Q 137.53 444.59 136.03 444.51
  L 132.18 444.31
  Z"
/>
<path fill="#010101" d="
  M 338.07 439.62
  Q 338.42 438.93 338.75 439.62
  L 340.72 443.80
  A 0.40 0.40 -12.9 0 1 340.36 444.37
  L 336.32 444.40
  A 0.40 0.39 -77.5 0 1 335.96 443.83
  L 338.07 439.62
  Z"
/>
<path fill="#010101" d="
  M 448.45 440.49
  C 448.61 440.28 448.80 439.82 449.07 439.52
  A 0.32 0.30 -37.9 0 1 449.58 439.57
  L 451.62 443.72
  A 0.47 0.40 -18.3 0 1 451.26 444.31
  Q 444.08 445.95 448.45 440.49
  Z"
/>
</svg>
