<?xml version="1.0" encoding="UTF-8" standalone="no"?>
<!DOCTYPE svg PUBLIC "-//W3C//DTD SVG 1.1//EN" "http://www.w3.org/Graphics/SVG/1.1/DTD/svg11.dtd">
<svg xmlns="http://www.w3.org/2000/svg" version="1.1" viewBox="0 0 176 176">
<g stroke-width="2.00" fill="none" stroke-linecap="butt">
<path stroke="#8c8e8d" vector-effect="non-scaling-stroke" d="
  M 68.50 97.75
  C 65.34 99.79 52.60 102.52 50.97 97.75
  Q 49.67 93.97 49.94 86.75
  C 50.11 82.19 43.74 82.32 43.51 86.49
  Q 43.19 92.49 43.08 98.50
  C 43.02 102.23 43.51 104.99 47.68 105.34
  C 54.59 105.92 64.08 106.47 69.92 104.07
  C 78.36 100.60 80.70 90.94 77.95 82.90
  Q 74.82 73.78 63.50 73.26
  Q 47.92 72.55 20.39 73.18
  C 17.55 73.25 14.15 72.81 15.06 69.09
  C 22.77 37.41 55.49 13.28 87.71 13.82
  C 130.74 14.53 166.77 49.81 163.19 93.98
  A 1.01 1.00 -76.4 0 0 163.80 94.99
  Q 167.62 96.57 169.77 94.06
  A 0.96 0.94 65.5 0 0 170.01 93.40
  C 169.73 70.44 163.85 50.65 147.95 33.81
  C 136.21 21.37 120.86 12.12 104.04 8.89
  C 84.09 5.05 60.28 9.83 43.10 20.97
  Q 13.79 39.99 6.85 76.58
  A 1.00 0.97 -64.1 0 0 7.16 77.51
  C 10.05 80.11 14.47 79.01 17.63 79.00
  Q 38.81 78.94 60.01 79.28
  Q 65.48 79.36 67.69 80.48
  C 74.00 83.68 74.28 94.01 68.50 97.75"
/>
<path stroke="#8c8e8d" vector-effect="non-scaling-stroke" d="
  M 119.58 87.47
  Q 120.95 85.47 121.39 87.85
  Q 122.09 91.64 122.78 95.37
  C 124.17 102.91 127.41 106.03 135.26 106.15
  Q 146.94 106.34 160.17 106.21
  A 1.00 1.00 0.0 0 1 161.16 107.43
  C 157.21 124.47 146.82 139.81 132.66 150.25
  Q 104.13 171.28 69.04 162.45
  C 33.49 153.50 10.83 121.16 12.27 84.84
  A 1.01 1.01 0.0 0 0 11.60 83.85
  C 5.67 81.74 6.03 85.92 6.10 89.93
  C 6.58 116.90 18.68 140.62 40.35 156.23
  Q 72.19 179.16 112.52 167.18
  C 142.80 158.19 163.50 133.57 169.02 102.64
  A 1.02 1.00 27.0 0 0 168.71 101.72
  C 165.22 98.52 145.68 100.32 140.26 100.47
  Q 129.93 100.74 128.02 91.01
  Q 126.30 82.29 125.07 76.91
  C 123.93 71.92 119.62 71.46 117.22 75.96
  Q 112.35 85.10 107.59 94.32
  Q 106.71 96.02 105.82 94.32
  Q 101.03 85.23 96.26 76.08
  Q 95.21 74.05 93.78 73.35
  C 89.88 71.43 88.66 75.13 87.85 78.28
  Q 84.76 90.28 81.85 102.34
  Q 81.24 104.88 83.69 105.80
  C 87.31 107.15 88.55 104.13 89.16 101.11
  Q 90.47 94.72 92.11 88.37
  Q 93.02 84.83 94.68 88.09
  Q 97.99 94.56 102.15 102.54
  C 104.39 106.81 109.01 107.42 111.15 102.65
  Q 114.86 94.36 119.58 87.47"
/>
</g>
<path fill="#1b1d1c" d="
  M 176.00 83.31
  L 176.00 93.56
  C 172.49 138.74 138.12 172.80 92.94 176.00
  L 83.44 176.00
  Q 40.96 172.26 17.05 139.53
  C -24.91 82.10 17.02 0.24 88.27 0.44
  C 135.38 0.58 172.66 36.68 176.00 83.31
  Z
  M 68.50 97.75
  C 65.34 99.79 52.60 102.52 50.97 97.75
  Q 49.67 93.97 49.94 86.75
  C 50.11 82.19 43.74 82.32 43.51 86.49
  Q 43.19 92.49 43.08 98.50
  C 43.02 102.23 43.51 104.99 47.68 105.34
  C 54.59 105.92 64.08 106.47 69.92 104.07
  C 78.36 100.60 80.70 90.94 77.95 82.90
  Q 74.82 73.78 63.50 73.26
  Q 47.92 72.55 20.39 73.18
  C 17.55 73.25 14.15 72.81 15.06 69.09
  C 22.77 37.41 55.49 13.28 87.71 13.82
  C 130.74 14.53 166.77 49.81 163.19 93.98
  A 1.01 1.00 -76.4 0 0 163.80 94.99
  Q 167.62 96.57 169.77 94.06
  A 0.96 0.94 65.5 0 0 170.01 93.40
  C 169.73 70.44 163.85 50.65 147.95 33.81
  C 136.21 21.37 120.86 12.12 104.04 8.89
  C 84.09 5.05 60.28 9.83 43.10 20.97
  Q 13.79 39.99 6.85 76.58
  A 1.00 0.97 -64.1 0 0 7.16 77.51
  C 10.05 80.11 14.47 79.01 17.63 79.00
  Q 38.81 78.94 60.01 79.28
  Q 65.48 79.36 67.69 80.48
  C 74.00 83.68 74.28 94.01 68.50 97.75
  Z
  M 119.58 87.47
  Q 120.95 85.47 121.39 87.85
  Q 122.09 91.64 122.78 95.37
  C 124.17 102.91 127.41 106.03 135.26 106.15
  Q 146.94 106.34 160.17 106.21
  A 1.00 1.00 0.0 0 1 161.16 107.43
  C 157.21 124.47 146.82 139.81 132.66 150.25
  Q 104.13 171.28 69.04 162.45
  C 33.49 153.50 10.83 121.16 12.27 84.84
  A 1.01 1.01 0.0 0 0 11.60 83.85
  C 5.67 81.74 6.03 85.92 6.10 89.93
  C 6.58 116.90 18.68 140.62 40.35 156.23
  Q 72.19 179.16 112.52 167.18
  C 142.80 158.19 163.50 133.57 169.02 102.64
  A 1.02 1.00 27.0 0 0 168.71 101.72
  C 165.22 98.52 145.68 100.32 140.26 100.47
  Q 129.93 100.74 128.02 91.01
  Q 126.30 82.29 125.07 76.91
  C 123.93 71.92 119.62 71.46 117.22 75.96
  Q 112.35 85.10 107.59 94.32
  Q 106.71 96.02 105.82 94.32
  Q 101.03 85.23 96.26 76.08
  Q 95.21 74.05 93.78 73.35
  C 89.88 71.43 88.66 75.13 87.85 78.28
  Q 84.76 90.28 81.85 102.34
  Q 81.24 104.88 83.69 105.80
  C 87.31 107.15 88.55 104.13 89.16 101.11
  Q 90.47 94.72 92.11 88.37
  Q 93.02 84.83 94.68 88.09
  Q 97.99 94.56 102.15 102.54
  C 104.39 106.81 109.01 107.42 111.15 102.65
  Q 114.86 94.36 119.58 87.47
  Z"
/>
<path fill="#fcfefe" d="
  M 50.97 97.75
  C 52.60 102.52 65.34 99.79 68.50 97.75
  C 74.28 94.01 74.00 83.68 67.69 80.48
  Q 65.48 79.36 60.01 79.28
  Q 38.81 78.94 17.63 79.00
  C 14.47 79.01 10.05 80.11 7.16 77.51
  A 1.00 0.97 -64.1 0 1 6.85 76.58
  Q 13.79 39.99 43.10 20.97
  C 60.28 9.83 84.09 5.05 104.04 8.89
  C 120.86 12.12 136.21 21.37 147.95 33.81
  C 163.85 50.65 169.73 70.44 170.01 93.40
  A 0.96 0.94 65.5 0 1 169.77 94.06
  Q 167.62 96.57 163.80 94.99
  A 1.01 1.00 -76.4 0 1 163.19 93.98
  C 166.77 49.81 130.74 14.53 87.71 13.82
  C 55.49 13.28 22.77 37.41 15.06 69.09
  C 14.15 72.81 17.55 73.25 20.39 73.18
  Q 47.92 72.55 63.50 73.26
  Q 74.82 73.78 77.95 82.90
  C 80.70 90.94 78.36 100.60 69.92 104.07
  C 64.08 106.47 54.59 105.92 47.68 105.34
  C 43.51 104.99 43.02 102.23 43.08 98.50
  Q 43.19 92.49 43.51 86.49
  C 43.74 82.32 50.11 82.19 49.94 86.75
  Q 49.67 93.97 50.97 97.75
  Z"
/>
<path fill="#fcfefe" d="
  M 119.58 87.47
  Q 114.86 94.36 111.15 102.65
  C 109.01 107.42 104.39 106.81 102.15 102.54
  Q 97.99 94.56 94.68 88.09
  Q 93.02 84.83 92.11 88.37
  Q 90.47 94.72 89.16 101.11
  C 88.55 104.13 87.31 107.15 83.69 105.80
  Q 81.24 104.88 81.85 102.34
  Q 84.76 90.28 87.85 78.28
  C 88.66 75.13 89.88 71.43 93.78 73.35
  Q 95.21 74.05 96.26 76.08
  Q 101.03 85.23 105.82 94.32
  Q 106.71 96.02 107.59 94.32
  Q 112.35 85.10 117.22 75.96
  C 119.62 71.46 123.93 71.92 125.07 76.91
  Q 126.30 82.29 128.02 91.01
  Q 129.93 100.74 140.26 100.47
  C 145.68 100.32 165.22 98.52 168.71 101.72
  A 1.02 1.00 27.0 0 1 169.02 102.64
  C 163.50 133.57 142.80 158.19 112.52 167.18
  Q 72.19 179.16 40.35 156.23
  C 18.68 140.62 6.58 116.90 6.10 89.93
  C 6.03 85.92 5.67 81.74 11.60 83.85
  A 1.01 1.01 0.0 0 1 12.27 84.84
  C 10.83 121.16 33.49 153.50 69.04 162.45
  Q 104.13 171.28 132.66 150.25
  C 146.82 139.81 157.21 124.47 161.16 107.43
  A 1.00 1.00 0.0 0 0 160.17 106.21
  Q 146.94 106.34 135.26 106.15
  C 127.41 106.03 124.17 102.91 122.78 95.37
  Q 122.09 91.64 121.39 87.85
  Q 120.95 85.47 119.58 87.47
  Z"
/>
</svg>
